<svg width="851" height="893" viewBox="0 0 851 893" fill="none" xmlns="http://www.w3.org/2000/svg">
<path d="M311 760L244 673H445.5L382.5 760L345 892.5L311 760Z" fill="#0A0E2A"/>
<path d="M420.371 285.05C504.193 185.425 551.492 145.24 619.037 148.507C642.29 147.935 663.586 152.338 682.728 163.269C701.791 174.154 718.649 191.474 733.171 216.649L848.778 248.455L850.279 248.868L848.818 249.406L761.971 281.401C749.508 289.756 741.088 297.581 735.001 307.928C728.892 318.312 725.085 331.319 722.005 350.125V350.135L721.998 350.177C700.404 475.42 654.064 551.251 571.353 594.802C488.835 638.25 370.273 649.471 204.458 646.015L164.392 692.831L164.382 692.843L164.372 692.854L145.226 712.708L145.214 712.72L145.202 712.73L145.18 712.751L145.174 712.757C117.52 737.133 88.551 761.88 54.332 773.454C37.2599 779.228 24.1827 781.496 15.3535 782.315C10.9396 782.725 7.58738 782.773 5.33008 782.718C4.2016 782.69 3.34669 782.635 2.76953 782.588C2.48192 782.564 2.26244 782.543 2.1123 782.526C2.03666 782.518 1.97854 782.51 1.94141 782.506C1.93063 782.505 1.9208 782.502 1.91309 782.501C1.91041 782.501 1.90624 782.501 1.90234 782.501L1.90039 782.5C1.89546 782.5 1.88911 782.499 1.88184 782.498L1.85449 782.494L1.85352 782.493L0.9375 782.367L0 782.237L1.27148 780.835C215.757 544.351 336.46 384.781 420.371 285.05ZM545.828 333.14C524.275 318.307 495.67 314.892 465.282 330.556L465.222 330.587L465.172 330.634C402.001 389.256 349.032 462.544 256.28 575.168C250.627 582.034 255.464 592.301 264.395 591.957C299.064 590.62 370.342 585.992 436.13 569.985L436.15 569.98L436.17 569.975C453.292 564.265 492.184 549.393 525.828 522.653C559.477 495.91 587.935 457.241 584.011 403.963C581.814 374.147 567.363 347.96 545.828 333.14ZM651.512 212.007C637.981 212.007 627.012 222.976 627.012 236.507C627.012 250.038 637.981 261.007 651.512 261.007C665.043 261.007 676.011 250.038 676.012 236.507C676.012 222.976 665.043 212.007 651.512 212.007Z" fill="#0A0E2A"/>
<path d="M192.542 362C218.975 362.409 240.277 383.964 240.277 410.494C240.277 437.28 218.563 458.994 191.777 458.994C180.098 458.994 169.383 454.865 161.012 447.987C161.266 447.991 161.522 447.994 161.777 447.994C188.563 447.994 210.277 426.28 210.277 399.494C210.277 384.388 203.37 370.895 192.542 362ZM293.542 248C319.975 248.409 341.277 269.964 341.277 296.494C341.277 323.28 319.563 344.994 292.777 344.994C281.098 344.994 270.383 340.865 262.012 333.987C262.266 333.991 262.522 333.994 262.777 333.994C289.563 333.994 311.277 312.28 311.277 285.494C311.277 270.388 304.37 256.895 293.542 248ZM163.542 226C189.975 226.409 211.277 247.964 211.277 274.494C211.277 301.28 189.563 322.994 162.777 322.994C151.098 322.994 140.383 318.865 132.012 311.987C132.266 311.991 132.522 311.994 132.777 311.994C159.563 311.994 181.277 290.28 181.277 263.494C181.277 248.388 174.37 234.895 163.542 226ZM395.542 137C421.975 137.409 443.277 158.964 443.277 185.494C443.277 212.28 421.563 233.994 394.777 233.994C383.098 233.994 372.383 229.865 364.012 222.987C364.266 222.991 364.522 222.994 364.777 222.994C391.563 222.994 413.277 201.28 413.277 174.494C413.277 159.388 406.37 145.895 395.542 137ZM278.542 101C304.975 101.409 326.277 122.964 326.277 149.494C326.277 176.28 304.563 197.994 277.777 197.994C266.098 197.994 255.383 193.865 247.012 186.987C247.266 186.991 247.522 186.994 247.777 186.994C274.563 186.994 296.277 165.28 296.277 138.494C296.277 123.388 289.37 109.895 278.542 101Z" fill="#0A0E2A"/>
<path d="M345 0C447.867 0 540.157 45.283 603.024 117.002C579.265 117.085 557.832 122.86 536.113 135.041C485.231 88.4379 417.437 60 343 60C185.047 60 57 188.047 57 346C57 432.916 95.7712 510.776 156.962 563.229C145.725 576.403 134.13 589.91 122.157 603.757C48.6137 540.847 2 447.367 2 343C2 153.566 155.566 0 345 0Z" fill="#0A0E2A"/>
</svg>
